<svg xmlns="http://www.w3.org/2000/svg" viewBox="0 0 100 100" fill="none" stroke="#E9A319" stroke-width="5" stroke-linecap="round" stroke-linejoin="round">
  <g transform="rotate(90 50 50)">
    <!-- Outer Rim -->
    <polygon points="18.5,16.25 81.5,16.25 90.5,25.25 90.5,74.75 81.5,83.75 18.5,83.75 9.5,74.75 9.5,25.25" />
    
    <!-- Inner Table -->
    <polygon points="29.75,29.75 70.25,29.75 74.75,34.25 74.75,65.75 70.25,70.25 29.75,70.25 25.25,65.75 25.25,34.25" />
    
    <!-- Connecting Bevels -->
    <line x1="29.75" y1="29.75" x2="18.5" y2="16.25" />
    <line x1="70.25" y1="29.75" x2="81.5" y2="16.25" />
    <line x1="74.75" y1="34.25" x2="90.5" y2="25.25" />
    <line x1="74.75" y1="65.75" x2="90.5" y2="74.75" />
    <line x1="70.25" y1="70.25" x2="81.5" y2="83.75" />
    <line x1="29.75" y1="70.25" x2="18.5" y2="83.75" />
    <line x1="25.25" y1="65.75" x2="9.5" y2="74.75" />
    <line x1="25.25" y1="34.25" x2="9.5" y2="25.25" />

    <!-- Star Facets -->
    <line x1="29.75" y1="29.75" x2="50" y2="16.25" />
    <line x1="70.25" y1="29.75" x2="50" y2="16.25" />
    
    <line x1="29.75" y1="70.25" x2="50" y2="83.75" />
    <line x1="70.25" y1="70.25" x2="50" y2="83.75" />
    
    <line x1="74.75" y1="34.25" x2="90.5" y2="50" />
    <line x1="74.75" y1="65.75" x2="90.5" y2="50" />
    
    <line x1="25.25" y1="34.25" x2="9.5" y2="50" />
    <line x1="25.25" y1="65.75" x2="9.5" y2="50" />
  </g>
</svg>